<svg width="22" height="20" viewBox="0 0 22 20" fill="none" xmlns="http://www.w3.org/2000/svg">
<path d="M10.3944 3.20487e-06C10.164 0.00211855 9.94635 0.10934 9.79731 0.293816L0 12.4329L0.893689 13.1542L10.4073 1.36656L20.2933 13.1618L21.1735 12.4242L10.9971 0.282754C10.8445 0.100967 10.6232 -0.000657841 10.3944 3.20487e-06Z" fill="#E6A033"/>
<path d="M11.66 16.0224C11.325 16.1001 11.005 16.1196 10.7169 16.0894L6.80571 20H15.0833C15.6602 20 16.2447 19.5475 16.3891 18.9887L18.2864 11.6389L10.5755 2.43886C10.4881 2.33481 10.3486 2.33614 10.2629 2.44164L2.84037 11.6387L3.91016 17.7373L8.13746 13.51C8.10745 13.2218 8.12692 12.9013 8.20458 12.5665C8.47578 11.3972 9.34933 10.4956 10.155 10.5517C10.961 10.609 11.394 11.6027 11.1232 12.7717C11.0842 12.9389 11.0325 13.1011 10.971 13.2553C11.1256 13.1936 11.2872 13.1421 11.4548 13.1034C12.6237 12.8326 13.618 13.2656 13.6743 14.0717C13.7312 14.8773 12.8291 15.7512 11.66 16.0224Z" fill="#E6A033"/>
</svg>
