<svg width="68" height="31" viewBox="0 0 68 31" fill="none" xmlns="http://www.w3.org/2000/svg">
<path d="M22.0572 3.97506C28.029 6.78842 23.5992 19.4865 17.5807 16.331C12.1997 13.5099 12.0385 -3.32048 24.5435 2.38945" stroke="white" stroke-width="2.4" stroke-linecap="round" stroke-linejoin="round"/>
<path d="M32.897 29.7763C26.8569 28.7767 25.5952 17.9931 25.9609 18.0311C32.0299 20.5856 37.9838 19.6344 38.4459 19.5305C39.2293 19.3543 54.3003 15.0056 59.2545 9.03475" stroke="white" stroke-width="2.4" stroke-linecap="round" stroke-linejoin="round"/>
<path d="M53.8565 20.5307C53.6825 20.0859 53.4193 19.7777 53.0625 19.4199C52.9264 19.2829 52.775 19.1535 52.6293 19.0248C52.2464 18.6877 45.5331 13.2871 44.7398 12.7316C44.357 12.4607 43.9652 12.284 43.4463 12.284C43.4391 12.2908 43.4318 12.2978 43.4247 12.3035C43.4285 12.2978 43.4318 12.2908 43.4357 12.284C43.4297 12.2938 38.1542 18.3601 38.0483 18.7814" stroke="white" stroke-width="2.4" stroke-linecap="round" stroke-linejoin="round"/>
<path opacity="0.503384" d="M0.455768 4.51252C0.516591 4.5635 0.576469 4.61673 0.635383 4.67271C0.956907 5.64856 18.5949 20.9768 35.3452 20.521C51.617 20.0782 65.7939 5.4254 67.5442 3.03812" stroke="white" stroke-width="0.9" stroke-linecap="round" stroke-linejoin="round"/>
</svg>
