<svg width="15" height="15" viewBox="0 0 15 15" fill="none" xmlns="http://www.w3.org/2000/svg">
<path d="M15 7.5V13.3333C15 14.2538 14.2538 15 13.3333 15H1.66667C0.746192 15 0 14.2538 0 13.3333V7.5H15ZM10.8333 0C11.2936 0 11.6667 0.3731 11.6667 0.833333V1.66667H13.3333C14.2538 1.66667 15 2.41286 15 3.33333V5.83333H0V3.33333C0 2.41286 0.746192 1.66667 1.66667 1.66667H3.33333V0.833333C3.33333 0.3731 3.70643 0 4.16667 0C4.6269 0 5 0.3731 5 0.833333V1.66667H10V0.833333C10 0.3731 10.3731 0 10.8333 0Z" fill="#E6A033"/>
</svg>
