<svg width="36" height="20" viewBox="0 0 36 20" fill="none" xmlns="http://www.w3.org/2000/svg">
<path d="M6.7076 8.55952C6.00372 8.81724 5.15856 8.27546 4.81965 7.34949C4.48094 6.42351 4.7769 5.46417 5.48068 5.2066C6.18472 4.94924 7.02979 5.49087 7.36868 6.41683C7.70741 7.34282 7.41145 8.30215 6.7076 8.55952Z" fill="white"/>
<path d="M9.38215 10.0368C8.64583 9.97292 8.11701 9.13622 8.20069 8.16733C8.28456 7.19878 8.94947 6.46525 9.68579 6.52873C10.422 6.59277 10.9508 7.42963 10.8671 8.39836C10.7832 9.36691 10.1184 10.1004 9.38215 10.0368Z" fill="white"/>
<path d="M3.64775 10.0044C3.0015 10.3842 2.07293 10.0027 1.5735 9.15272C1.07408 8.30213 1.19312 7.30543 1.83946 6.92561C2.4857 6.54612 3.41447 6.92777 3.9138 7.7778C4.41318 8.62823 4.29398 9.6249 3.64775 10.0044Z" fill="white"/>
<path d="M0.186651 11.0111C0.605649 10.4024 1.59447 10.3553 2.39546 10.9063C3.19662 11.4577 3.50622 12.3979 3.08733 13.0068C2.66845 13.6155 1.67954 13.6626 0.87853 13.1114C0.0776331 12.5602 -0.232145 11.62 0.186651 11.0111Z" fill="white"/>
<path d="M4.48896 11.1258C4.56887 10.5728 4.90785 10.0685 5.44966 9.81276C5.99136 9.55718 6.5962 9.61617 7.07373 9.90582C7.60154 10.2261 7.93918 10.6446 8.39378 10.8275C8.84831 11.0104 10.1215 10.4657 10.9141 11.9051C11.474 12.9218 10.9601 14.2071 9.91052 14.7023C9.1128 15.0788 8.48143 15.0367 8.01793 15.2553C7.55449 15.4739 7.18556 15.9881 6.3879 16.3645C5.33838 16.8598 4.01958 16.4396 3.59068 15.361C2.9834 13.8341 4.21338 13.1976 4.36126 12.7304C4.50901 12.2633 4.40059 11.7367 4.48896 11.1258Z" fill="white"/>
<path d="M27.9519 5.97965C26.7201 6.43066 25.2411 5.48254 24.648 3.8621C24.0552 2.24163 24.5732 0.562791 25.8048 0.112047C27.0369 -0.338345 28.5157 0.60951 29.1088 2.22995C29.7016 3.85042 29.1836 5.52925 27.9519 5.97965Z" fill="white"/>
<path d="M32.6324 8.5642C31.3438 8.45248 30.4184 6.98826 30.5649 5.29271C30.7116 3.59774 31.8752 2.31406 33.1638 2.42516C34.4522 2.53723 35.3776 4.00173 35.231 5.69701C35.0842 7.39197 33.9208 8.67561 32.6324 8.5642Z" fill="white"/>
<path d="M22.5973 8.50655C21.4663 9.17128 19.8413 8.5037 18.9673 7.01615C18.0933 5.52763 18.3017 3.78341 19.4328 3.11872C20.5637 2.45461 22.189 3.12251 23.0629 4.61005C23.9368 6.0983 23.7282 7.84249 22.5973 8.50655Z" fill="white"/>
<path d="M16.5401 10.2701C17.2734 9.2048 19.0038 9.12246 20.4055 10.0867C21.8076 11.0516 22.3494 12.697 21.6163 13.7626C20.8833 14.8278 19.1527 14.9102 17.7509 13.9456C16.3493 12.981 15.8072 11.3357 16.5401 10.2701Z" fill="white"/>
<path d="M24.0693 10.4712C24.2091 9.50354 24.8023 8.621 25.7505 8.17342C26.6985 7.72616 27.7569 7.8294 28.5926 8.33628C29.5163 8.89682 30.1072 9.62909 30.9027 9.94917C31.6981 10.2692 33.9262 9.316 35.3133 11.835C36.2931 13.6143 35.3937 15.8635 33.557 16.7302C32.161 17.3889 31.0561 17.3154 30.245 17.6979C29.4339 18.0805 28.7883 18.9803 27.3924 19.639C25.5558 20.5057 23.2479 19.7703 22.4973 17.8829C21.4345 15.2107 23.587 14.0968 23.8458 13.2793C24.1044 12.462 23.9146 11.5403 24.0693 10.4712Z" fill="white"/>
</svg>
