<svg width="28" height="30" viewBox="0 0 28 30" fill="none" xmlns="http://www.w3.org/2000/svg">
<path d="M27.8888 12.0972C27.8888 10.9132 26.6183 9.57649 26.072 9.05676C25.2247 8.25051 24.0201 7.38901 23.1805 7.38901C22.5497 7.38901 22.0967 7.52249 21.7848 7.67518C21.6194 7.22202 21.4341 6.42473 21.5528 5.28632C21.8313 2.61216 21.0953 1.47334 20.7658 1.10789C20.4238 0.728378 19.9813 0.527753 19.4861 0.527753C19.4187 0.527753 19.3534 0.538768 19.2914 0.559218C18.9921 0.297011 18.5176 0 17.9027 0C17.6119 0 17.3659 0.153457 17.2276 0.420995C16.7494 1.34672 17.7059 3.99919 18.0341 4.46173C18.54 5.17464 18.9276 5.78817 19.0654 6.00983C19.2388 7.2659 19.4277 8.39184 19.5023 8.82602C19.0502 9.54127 18.7334 10.2802 18.5885 10.6463L15.4223 11.6113H8.40268C6.19469 11.6113 4.08568 12.3035 2.46427 13.5604C0.898182 14.7744 0 16.3572 0 17.9029C0 20.282 1.68193 22.0457 2.45771 22.7325L1.73009 23.7027C1.25754 24.3328 1.29433 25.2174 1.81763 25.806L5.15548 29.561C5.40339 29.84 5.7597 30 6.133 30H9.45836C9.6376 30 9.80231 29.9014 9.8868 29.7434C9.97141 29.5853 9.96209 29.3936 9.86271 29.2445L9.06508 28.0481C8.81324 27.6703 8.39172 27.4448 7.93774 27.4448H7.04706L4.9231 24.896C4.94255 24.885 4.96224 24.8738 4.98233 24.8623C5.71505 24.4449 6.9093 23.7644 7.98819 23.0555C9.11658 23.3395 10.5292 23.4352 11.8483 23.4352C13.3095 23.4352 14.6545 23.3183 15.3689 23.2117C15.72 24.3465 16.2798 26.1039 17.1723 28.8426C17.3979 29.5349 18.0392 30 18.7679 30H21.0695C21.3379 30 21.5555 29.7824 21.5555 29.514C21.5555 27.6948 20.3071 27.5456 19.7741 27.4819C19.7613 27.4804 19.7486 27.4788 19.7362 27.4774C19.4584 26.9101 18.8979 24.595 18.4668 22.4676C19.2363 22.1747 20.5099 21.4494 21.6818 20.4496C23.1454 19.201 24.952 17.1133 25.2473 14.2584C25.2512 14.2206 25.2502 14.1834 25.2457 14.1471C26.2129 14.1077 27.8888 13.6421 27.8888 12.0972ZM18.2772 2.38734C18.0753 1.62181 18.0514 1.18699 18.0683 0.987127C18.3823 1.04484 18.6256 1.25349 18.7551 1.38873C18.6946 1.81464 18.685 2.54853 18.8109 3.87427C18.7034 3.69831 18.4664 3.10523 18.2772 2.38734ZM25.1373 13.1781C25.0995 13.1785 25.062 13.1834 25.0253 13.1926C23.3421 13.6136 21.7587 13.2009 20.7903 12.089C20.6141 11.8865 20.3071 11.8654 20.1047 12.0417C19.9023 12.218 19.8812 12.5249 20.0575 12.7274C21.0712 13.8913 22.5959 14.4501 24.2629 14.3043C23.9594 16.7219 22.4066 18.5316 21.1428 19.6312C20.3326 20.3361 19.5187 20.8574 18.9007 21.1925C18.9579 20.9749 18.8572 20.7396 18.648 20.6349C18.4078 20.5148 18.1159 20.6121 17.9959 20.8522L17.4682 21.9078C17.4675 21.9092 17.4671 21.9107 17.4664 21.9121C17.4451 21.9558 17.4302 22.003 17.4228 22.0528C17.4222 22.0569 17.4215 22.0609 17.421 22.0649C17.4185 22.0846 17.4168 22.1047 17.4168 22.1251C17.4168 22.1281 17.4173 22.1311 17.4173 22.1342C17.4174 22.1387 17.4178 22.1432 17.418 22.1477C17.4191 22.1709 17.4214 22.1937 17.4256 22.2159C17.4257 22.2168 17.4257 22.2178 17.4259 22.2188C17.426 22.2189 17.4262 22.2205 17.4265 22.2213C17.4266 22.2223 17.4269 22.2233 17.427 22.2243C17.4465 22.3228 17.7224 23.7154 18.0482 25.1019C18.2471 25.9484 18.426 26.6293 18.5798 27.1256C18.8615 28.0349 19.0495 28.3341 19.3844 28.4058C19.4715 28.4245 19.5625 28.4354 19.6587 28.4469C20.0683 28.4958 20.4097 28.5366 20.5336 29.028H18.7678C18.461 29.028 18.1912 28.8325 18.0963 28.5414C16.459 23.5173 15.8138 21.3873 15.7509 21.0505C15.7688 20.8616 15.9887 20.2395 16.2357 19.6835C16.3446 19.4382 16.2342 19.151 15.9889 19.0421C15.7435 18.9331 15.4565 19.0435 15.3475 19.2888C15.2138 19.5895 14.7778 20.6065 14.7778 21.0695C14.7778 21.139 14.778 21.2468 15.0825 22.2707C13.9303 22.4246 11.2103 22.6078 9.09244 22.2849C9.87725 21.6914 10.472 21.0927 10.472 20.5416C10.472 19.9674 9.66391 18.5042 9.09016 17.6486C8.0476 16.0939 7.10606 15.3057 6.29155 15.3057C5.32897 15.3057 4.31302 15.6105 4.2703 15.6234C4.01355 15.7013 3.86847 15.9727 3.9464 16.2296C4.02427 16.4864 4.29597 16.6313 4.55249 16.5535C4.56163 16.5507 5.47159 16.2775 6.29167 16.2775C6.61241 16.2775 7.317 16.7644 8.24711 18.1364C8.99828 19.2446 9.45613 20.2759 9.4982 20.5338C9.46803 20.6196 9.23992 21.058 7.56291 22.1715C6.48274 22.8888 5.24237 23.5955 4.50122 24.0177C4.23486 24.1694 4.04243 24.279 3.92794 24.3488C3.80718 24.4222 3.72433 24.5447 3.70124 24.6842C3.6781 24.8237 3.71677 24.9663 3.8073 25.0749L6.44618 28.2415C6.53852 28.3523 6.67528 28.4165 6.81954 28.4165H7.93786C8.06623 28.4165 8.18536 28.4802 8.25661 28.587L8.55028 29.0279H6.13288C6.03702 29.0279 5.9455 28.9869 5.88181 28.9151L2.54396 25.1602C2.32646 24.9154 2.31111 24.5476 2.50757 24.2857L3.51363 22.9443C3.59132 22.8407 3.62419 22.7101 3.60538 22.5819C3.58658 22.4538 3.51708 22.3382 3.41279 22.2612C3.38824 22.2433 0.971717 20.4306 0.971717 17.9027C0.971717 15.3916 4.1496 12.583 8.4025 12.583H15.4946C15.5426 12.583 15.5904 12.5759 15.6363 12.5619L19.0998 11.5063C19.2473 11.4614 19.3648 11.3488 19.4164 11.2035C19.4202 11.1928 19.8019 10.1242 20.4181 9.19985C20.4875 9.09561 20.5141 8.96858 20.4922 8.84524C20.4895 8.82994 20.241 7.42715 20.0209 5.82438C20.0197 5.79626 20.0156 5.76819 20.0094 5.74036C19.9923 5.61474 19.9754 5.48817 19.9589 5.36091C19.6284 2.82076 19.6614 1.87588 19.7143 1.53381C19.8356 1.57312 19.9433 1.64707 20.0438 1.75851C20.5334 2.30179 20.7463 3.64704 20.586 5.1856C20.3498 7.45264 21.1657 8.63436 21.2006 8.68352C21.294 8.81535 21.4362 8.90676 21.5982 8.90313C21.7569 8.89944 21.8939 8.83264 21.9813 8.70116C22.0295 8.65164 22.3476 8.36078 23.1805 8.36078C23.5441 8.36078 24.4463 8.85139 25.4019 9.76076C26.3221 10.6364 26.9167 11.5534 26.9167 12.0971C26.9168 13.1367 25.154 13.1778 25.1373 13.1781Z" fill="#E6A033"/>
</svg>
