<svg width="18" height="41" viewBox="0 0 18 41" fill="none" xmlns="http://www.w3.org/2000/svg">
<path d="M14.1884 0C17.7266 7.67311 17.5267 12.1505 12.4823 18.0891H13.079L10.0067 23.805C8.58069 26.4588 10.5457 29.6468 13.6074 29.6469H17.7197C17.2465 28.6699 17.6288 26.0643 16.3301 23.7025C15.8627 22.8526 15.3566 21.8763 15.8613 21.0472C16.3085 20.3131 17.09 19.7984 18 19.7024V40.9009L17.6504 40.8902C15.9188 40.787 14.384 39.9538 13.3525 39.689L4.76642 31.2797C-1.58881 25.0542 -1.58881 14.96 4.76642 8.73449L12.246 1.40822C12.8338 0.83252 13.4905 0.362708 14.1884 0Z" fill="#AD9A8F"/>
</svg>
