<svg width="18" height="20" viewBox="0 0 18 20" fill="none" xmlns="http://www.w3.org/2000/svg">
<path d="M10.1525 20C4.54541 20 0 15.4546 0 9.8475C0 5.09581 3.26442 1.10652 7.67294 0C5.8583 1.83409 4.7378 4.35632 4.7378 7.14019C4.7378 12.7472 9.28321 17.2927 14.8903 17.2927C15.7456 17.2927 16.5763 17.1869 17.3698 16.9877C15.5296 18.8476 12.9756 20 10.1525 20ZM13.9048 14.8903H11.0617V14.5102L12.659 12.4263H11.2512V11.7314H13.9048V12.1884L12.3914 14.1954H13.9048V14.8903ZM16.5964 10.8293H12.941V10.3407L14.9946 7.66135H13.1847V6.76782H16.5964V7.35545L14.6507 9.93579H16.5964V10.8293ZM14.0426 6.09147H9.57491V5.49426L12.0849 2.21954H9.87277V1.12743H14.0426V1.84567L11.6645 4.9994H14.0426V6.09147Z" fill="#E6A033"/>
</svg>
