<svg width="25" height="25" viewBox="0 0 25 25" fill="none" xmlns="http://www.w3.org/2000/svg">
<path fill-rule="evenodd" clip-rule="evenodd" d="M13.75 8.75C13.75 8.05965 13.1904 7.5 12.5 7.5C11.8096 7.5 11.25 8.05965 11.25 8.75V11.25H8.75C8.05965 11.25 7.5 11.8096 7.5 12.5C7.5 13.1904 8.05965 13.75 8.75 13.75H11.25V16.25C11.25 16.9404 11.8096 17.5 12.5 17.5C13.1904 17.5 13.75 16.9404 13.75 16.25V13.75H16.25C16.9404 13.75 17.5 13.1904 17.5 12.5C17.5 11.8096 16.9404 11.25 16.25 11.25H13.75V8.75ZM0 12.5C0 5.59644 5.59644 0 12.5 0C19.4035 0 25 5.59644 25 12.5C25 19.4035 19.4035 25 12.5 25C5.59644 25 0 19.4035 0 12.5Z" fill="#752991"/>
</svg>
