<svg width="25" height="30" viewBox="0 0 25 30" fill="none" xmlns="http://www.w3.org/2000/svg">
<path d="M24.0534 28.4528C23.9667 28.3277 23.8493 28.2252 23.7137 28.1565L22.4634 27.5216L19.3667 20.001C19.5434 19.1064 20.4668 14.3632 20.4668 12.9019C20.4668 11.4717 19.0464 7.87159 18.5994 6.77397C19.0524 6.27136 19.1252 6.08015 19.1563 5.99775C19.3378 5.5177 19.4142 4.99341 19.3773 4.48154L19.1622 1.50144C19.1375 1.15953 19.0462 0.831296 18.891 0.525679C18.6815 0.113427 18.2074 -0.0912702 17.7637 0.0389802C17.4905 0.119144 17.2684 0.314644 17.1541 0.575207L16.7668 1.45875C16.4878 2.09521 15.9793 2.58868 15.3347 2.84838C15.3116 2.8577 15.2878 2.86509 15.2643 2.87013C15.2405 2.87522 15.2159 2.87827 15.1907 2.87926C14.4964 2.90747 13.8301 2.66574 13.3145 2.19992L12.5735 1.53065C12.3659 1.3431 12.0803 1.26374 11.8061 1.317C11.3563 1.38716 11.0161 1.76474 10.9946 2.22105C10.9784 2.56345 11.0299 2.90026 11.1478 3.2221L12.1749 6.02789C12.3512 6.50974 12.6361 6.95648 12.9987 7.31983C13.0539 7.37508 13.1737 7.49476 13.6308 7.71071L13.4836 8.51607C13.4391 8.75942 13.3244 8.98183 13.1519 9.15918L12.1149 10.226C11.6894 10.6636 11.1212 10.9434 10.5149 11.0139L8.79617 11.2138C6.9378 11.4299 5.26363 12.4396 4.20285 13.9839C2.98306 15.7598 2.00444 17.5662 1.29403 19.3531C0.538256 21.2544 0.109971 23.0867 0.0145819 24.8212C-0.0145628 25.3511 0.00271274 26.7327 0.0422353 27.0559C0.126376 27.7446 0.437709 28.768 1.49195 29.3971C1.87276 29.6243 2.82385 29.9331 6.66929 29.9907C7.10111 29.9972 7.53667 30 7.96701 30C9.738 30 11.419 29.9527 12.3687 29.9201C12.972 29.8993 13.4446 29.41 13.4446 28.806C13.4446 28.4993 13.3227 28.2136 13.1015 28.0014C12.8803 27.7892 12.5888 27.6795 12.2836 27.6922C11.5386 27.7233 10.845 27.745 10.1993 27.7589C10.4978 27.1009 10.4314 26.2514 10.3734 25.5136C10.318 24.8087 10.2607 24.0799 10.4815 23.5983C10.8848 22.7182 11.5542 22.1954 11.9472 21.948L13.5647 24.112C13.6811 24.2677 13.7383 24.4602 13.7258 24.6541L13.5627 27.182C13.5158 27.9102 14.0474 28.5415 14.773 28.6193C14.8222 28.6245 14.8714 28.6272 14.9202 28.6272C15.2299 28.6272 15.5279 28.5221 15.772 28.3243C16.0547 28.0954 16.2308 27.7701 16.268 27.4083L16.5751 24.4255C16.6074 24.1113 16.554 23.7939 16.4207 23.5076L15.1046 20.6817L15.779 20.0266L17.074 23.8038C17.0855 23.8372 17.1008 23.8693 17.1195 23.8993L20.3713 29.1125C20.6777 29.6037 21.2062 29.8969 21.785 29.8969H23.2971C23.6405 29.8969 23.9529 29.7079 24.1122 29.4036C24.2716 29.0992 24.249 28.7349 24.0534 28.4528ZM12.0231 2.90169C11.9482 2.69706 11.9154 2.48285 11.9257 2.26511C11.9263 2.25125 12.6898 2.89175 12.6898 2.89175C13.3873 3.52194 14.2885 3.84868 15.2279 3.81084C15.306 3.80773 15.3841 3.79791 15.4601 3.78163C15.5359 3.76535 15.611 3.74229 15.6833 3.71309C16.5551 3.36173 17.2432 2.69414 17.6206 1.83316C17.6206 1.83316 18.0538 0.935757 18.0601 0.948123C18.1589 1.14244 18.2168 1.35124 18.2326 1.56861L18.4476 4.54872C18.4749 4.92667 18.4185 5.31369 18.2849 5.66703C18.237 5.78206 17.8657 6.26092 16.8021 7.24967C16.6792 7.36395 16.5686 7.4819 16.4768 7.5822C16.3794 7.68834 16.225 7.72152 16.0928 7.66485C15.9669 7.61072 15.8168 7.54827 15.6591 7.49489C14.2837 7.02987 13.7485 6.7457 13.6586 6.66131C13.3908 6.39304 13.1806 6.06319 13.0503 5.70748L12.0231 2.90169ZM21.7852 28.9646C21.5301 28.9646 21.2973 28.8355 21.1624 28.6191L17.9387 23.451L16.5184 19.3083L17.7155 18.1454C17.9002 17.9661 17.9044 17.671 17.7251 17.4864C17.5458 17.3018 17.2507 17.2975 17.0661 17.4769L14.688 19.787L14.6814 19.7727C14.6058 19.6105 14.6147 19.4215 14.705 19.2671L17.4202 14.6288C17.5502 14.4067 17.4755 14.1212 17.2534 13.9911C17.0312 13.8611 16.7457 13.9358 16.6157 14.1579L13.9005 18.7962C13.6557 19.2146 13.6317 19.7267 13.8364 20.1662L15.5758 23.9011C15.6382 24.0349 15.6631 24.1832 15.648 24.33L15.3409 27.3128C15.3293 27.4262 15.2741 27.5281 15.1855 27.5999C15.0969 27.6716 14.9861 27.7045 14.8724 27.6923C14.645 27.6679 14.4783 27.47 14.4931 27.2418L14.6562 24.714C14.683 24.299 14.5606 23.8869 14.3116 23.5538L10.7944 18.8485C10.4321 18.3638 10.4065 17.6949 10.7308 17.1839L12.0672 15.0781C12.2051 14.8607 12.1407 14.5728 11.9234 14.4348C11.706 14.2968 11.418 14.3613 11.2801 14.5786L9.94376 16.6844C9.41356 17.52 9.45538 18.6139 10.0478 19.4065L11.3872 21.1985C11.2254 21.3035 11.0375 21.4395 10.8403 21.6107C10.7783 21.2087 10.6407 20.8185 10.4252 20.4642C9.07339 18.2428 5.38636 17.5664 5.23007 17.5386C4.97678 17.4938 4.73479 17.6628 4.6898 17.9162C4.64487 18.1697 4.8139 18.4116 5.06738 18.4565C5.07595 18.458 5.93806 18.6133 6.94526 19.0105C7.84806 19.3664 9.04648 19.9917 9.62894 20.9488C9.97147 21.5117 10.0372 22.2051 9.82575 22.8391C9.75832 22.9567 9.69394 23.0797 9.63429 23.2098C9.3127 23.9114 9.37956 24.7629 9.44425 25.5864C9.54505 26.8699 9.52516 27.5213 8.91381 27.7767C5.8935 27.7933 4.23635 27.6101 3.94037 27.3837C3.73592 27.2274 3.44341 27.2664 3.28706 27.4709C3.13071 27.6753 3.16968 27.9678 3.37419 28.1242C3.6936 28.3685 4.45702 28.6549 7.55183 28.703C9.36564 28.7313 11.3195 28.6653 12.3226 28.6234C12.3896 28.6206 12.4355 28.6539 12.4564 28.6739C12.4774 28.6941 12.5126 28.738 12.5126 28.8059C12.5126 28.9048 12.4354 28.985 12.3368 28.9884C6.75952 29.1802 2.69012 29.0264 1.96964 28.5966C1.47406 28.3008 1.21716 27.8481 1.08517 27.4267C0.911234 26.8714 0.918754 25.3701 0.945972 24.8807C1.18068 20.6558 3.50263 16.6498 4.97124 14.5116C5.87958 13.1892 7.31296 12.3247 8.90386 12.1397L10.6226 11.9398C11.4413 11.8447 12.2086 11.4667 12.7833 10.8757L13.8203 9.80894C14.1221 9.4986 14.3227 9.10947 14.4006 8.68361L14.5117 8.07617C14.7532 8.16714 15.0333 8.26725 15.3605 8.37787C15.4872 8.42074 15.6158 8.47444 15.725 8.52135C15.8866 8.59064 16.0568 8.6242 16.2255 8.6242C16.5749 8.6242 16.918 8.48028 17.164 8.21201C17.2434 8.12526 17.3381 8.02415 17.4369 7.93231C17.6035 7.77739 17.7528 7.63545 17.8881 7.50415C18.5112 9.07442 19.5347 11.87 19.5347 12.9019C19.5347 14.3918 18.4363 19.9014 18.4253 19.9569C18.4072 20.0471 18.4162 20.1406 18.4513 20.2257L21.6674 28.0363C21.7099 28.1395 21.7879 28.2239 21.8874 28.2744L23.2466 28.9646H21.7852V28.9646Z" fill="white"/>
</svg>
