<svg width="28" height="20" viewBox="0 0 28 20" fill="none" xmlns="http://www.w3.org/2000/svg">
<path d="M11.8787 13.6059C12.4095 12.9021 12.2693 11.9012 11.5654 11.3703L9.88815 10.1104H15.8299L19.0464 12.8968C19.6191 13.395 20.4872 13.3343 20.9853 12.7618C21.4835 12.1889 21.4228 11.3208 20.8502 10.8229L16.0502 6.66455C16.0417 6.65727 16.033 6.65038 16.0245 6.64326C15.6826 6.35518 15.2414 6.18134 14.7593 6.18134H8.12107L6.05735 0.768677C5.71198 0.0808052 4.87414 -0.196877 4.18622 0.148434L0.768787 1.3706C0.0808069 1.71613 -0.196929 2.5537 0.148489 3.24178L3.27994 8.93294C3.30688 8.98672 3.33733 9.03769 3.36988 9.08635C3.46811 9.23729 3.59318 9.37433 3.74531 9.489L9.64312 13.9192C10.347 14.4501 11.3479 14.3098 11.8787 13.6059Z" fill="white"/>
<path d="M26.8047 15.382C24.1614 14.8872 20.6658 14.849 16.962 15.2744C12.6313 15.7722 8.61295 16.8641 6.21286 18.1956C5.74803 18.4535 5.58028 19.0393 5.83807 19.5042C6.01391 19.8211 6.34213 20 6.68066 20C6.83855 20 6.99881 19.961 7.14667 19.879C9.33752 18.6636 13.0889 17.6572 17.1818 17.1869C20.6486 16.7886 24.027 16.8205 26.4507 17.2741C26.9731 17.3719 27.476 17.0276 27.5739 16.5051C27.6715 15.9827 27.3272 15.4798 26.8047 15.382Z" fill="white"/>
</svg>
