<svg width="38" height="30" viewBox="0 0 38 30" fill="none" xmlns="http://www.w3.org/2000/svg">
<path d="M37.697 7.78011C37.6813 7.59179 37.5747 7.42294 37.4115 7.32773L34.8427 5.82925L34.5182 4.5963C34.478 4.4436 34.3773 4.31385 34.2392 4.23719L32.4314 3.23282L32.4107 2.94403C32.3282 1.78828 31.6982 0.72247 30.7252 0.0929703C30.5682 -0.00864916 30.3718 -0.0282003 30.1977 0.0404218C30.0236 0.109044 29.8934 0.257493 29.8481 0.439017L28.8935 4.25774L25.1078 7.25772C23.9309 7.31027 17.4585 7.59921 12.4757 7.81682C10.5194 7.90229 8.62799 8.52746 7.00602 9.6248C6.16517 10.1937 5.4162 10.8778 4.77642 11.6525C3.00059 11.9831 1.66756 13.5378 1.63727 15.3646L1.52854 21.9167L0.58661 22.8366C0.487464 22.9334 0.42626 23.0626 0.414205 23.2007L0.00749544 27.8488C-0.0408028 28.4 0.145976 28.95 0.519688 29.358C0.893478 29.7659 1.42522 29.9999 1.97853 29.9999H2.88081C3.2009 29.9999 3.46039 29.7404 3.46039 29.4203V28.8806C3.46039 28.3201 3.13567 27.8339 2.66459 27.6004L2.88514 25.6467C3.02787 24.3822 3.79778 23.2809 4.94465 22.7006L5.01977 22.6627C7.21676 21.5513 9.01925 19.7797 10.1844 17.6375L21.8033 20.7681L21.6571 23.2039C21.5527 24.945 21.6481 26.6996 21.9408 28.4191C22.0967 29.3351 22.8842 30 23.8135 30H25.6294C25.9495 30 26.209 29.7405 26.209 29.4204C26.209 28.529 25.6132 27.7741 24.7988 27.5332C24.773 26.5005 24.889 25.4716 25.1447 24.4682L26.4638 19.2936L29.2039 16.2899C30.9547 14.3707 32.058 11.8926 32.3133 9.30765L34.307 9.75068C35.0045 9.90578 35.7487 9.7251 36.2977 9.2677L37.4905 8.27368C37.6357 8.15259 37.7128 7.96844 37.697 7.78011ZM30.7374 1.66193C31.035 2.05318 31.219 2.52774 31.2546 3.02664L31.2841 3.44008L31.0551 3.80652C30.918 4.02584 30.7034 4.17753 30.4511 4.23371C30.3309 4.26045 30.2095 4.26323 30.0918 4.24438L30.7374 1.66193ZM2.79627 15.3838C2.80717 14.725 3.06102 14.117 3.47446 13.651C3.41217 13.7754 3.35159 13.9009 3.29409 14.028L3.26249 14.0979C2.97084 14.7425 2.88259 15.451 3.00724 16.1471L3.02061 16.2215C3.23946 17.4433 3.1298 18.6909 2.7224 19.8395L2.79627 15.3838ZM28.3475 15.5085L25.5097 18.6192C25.4456 18.6896 25.3998 18.7745 25.3763 18.8667L24.0214 24.1817C23.6974 25.4529 23.5768 26.7612 23.663 28.0703C23.6831 28.3749 23.9361 28.6118 24.2414 28.6118C24.4601 28.6118 24.6588 28.6991 24.8045 28.8407H23.8135C23.4512 28.8407 23.1442 28.5815 23.0835 28.2244C22.8056 26.592 22.715 24.9261 22.8141 23.2732L22.9731 20.6242C23.077 18.8926 22.871 17.1738 22.3608 15.5156L21.5565 12.9017C21.4624 12.5957 21.1379 12.4242 20.8321 12.5181C20.5262 12.6123 20.3545 12.9366 20.4486 13.2425L21.2529 15.8564C21.6259 17.0687 21.8214 18.3162 21.8382 19.5769L10.6969 16.575C10.8557 16.1995 10.9959 15.815 11.116 15.4228L11.1463 15.3239C11.24 15.0179 11.068 14.6937 10.7619 14.6C10.4558 14.5061 10.1317 14.6783 10.038 14.9843L10.0077 15.0832C9.14204 17.9087 7.1333 20.2942 4.49637 21.6282L4.42126 21.6662C2.92478 22.4233 1.91987 23.8626 1.73317 25.5165L1.45652 27.9671C1.43797 28.1311 1.49029 28.2953 1.60025 28.4183C1.71022 28.5413 1.8674 28.6117 2.03247 28.6117C2.16708 28.6117 2.2789 28.7112 2.29814 28.8406H1.97837C1.74584 28.8406 1.53125 28.7462 1.37422 28.5748C1.21719 28.4034 1.14177 28.1814 1.16209 27.9498L1.55002 23.5157L2.50888 22.5793C2.52789 22.5608 2.54566 22.5408 2.56197 22.5198C3.98912 20.6795 4.5721 18.3094 4.16145 16.0169L4.14808 15.9425C4.06493 15.4783 4.12382 15.0056 4.3184 14.5756L4.35016 14.5055C5.06853 12.9176 6.21154 11.5618 7.65561 10.5849C9.1 9.60772 10.7843 9.05101 12.5263 8.9749C18.0012 8.7358 25.274 8.41062 25.3468 8.40737C25.4685 8.40196 25.5854 8.3583 25.6809 8.28265L29.4788 5.27301C29.7215 5.3676 29.978 5.41659 30.2382 5.41659C30.3926 5.41659 30.5482 5.39959 30.7027 5.3652C31.2608 5.24102 31.7349 4.90564 32.0379 4.42088L32.0753 4.36106L33.0046 4.87728L32.6225 5.25933C32.4855 5.39635 32.426 5.59278 32.4641 5.78281C32.5021 5.97283 32.6325 6.13125 32.8117 6.20505L33.7486 6.59074C32.9318 6.83695 32.1831 7.2996 31.5985 7.94155L31.5121 7.91736C30.887 7.74233 30.4503 7.16661 30.4503 6.51733C30.4503 6.19725 30.1908 5.93775 29.8707 5.93775C29.5506 5.93775 29.2911 6.19725 29.2911 6.51733C29.2911 7.67587 30.0649 8.70373 31.1757 9.02629L31.1633 9.15596C30.9394 11.5075 29.9394 13.7635 28.3475 15.5085ZM35.5557 8.37708C35.2806 8.60621 34.9079 8.6967 34.5584 8.61903L32.9623 8.26433C33.6908 7.72169 34.6124 7.46505 35.5277 7.57077L36.1132 7.91233L35.5557 8.37708Z" fill="#E6A033"/>
</svg>
