<svg width="37" height="30" viewBox="0 0 37 30" fill="none" xmlns="http://www.w3.org/2000/svg">
<path d="M35.9526 4.16974C35.7795 3.85946 35.4797 3.64514 35.1302 3.58155L33.6707 3.31622L32.7871 1.64723C32.7445 1.56678 32.6829 1.49779 32.6078 1.4464L32.0873 1.09043L32.2274 0.821052C32.3317 0.620519 32.3056 0.376987 32.1612 0.203047C32.0168 0.029107 31.7822 -0.0413829 31.566 0.024163L28.6789 0.899032C28.0369 1.09357 27.47 1.4685 27.0394 1.98312L22.5561 7.34298C21.5336 7.49857 16.8077 8.13987 12.9628 7.36373C12.7353 6.42564 12.1775 5.58523 11.3767 5.01329L10.7712 4.58077C9.97915 4.01497 9.00668 3.71743 8.03405 3.74118C7.01011 3.7668 6.01531 4.14494 5.23296 4.80602C4.45202 5.46582 3.91372 6.38144 3.71663 7.38456L3.25339 9.53604C2.83907 9.87822 2.43403 10.2519 2.06645 10.6527C1.21128 11.5852 0.891344 12.8843 1.21046 14.1279C1.47122 15.1441 1.78996 16.399 2.13207 17.7568C2.35718 18.6506 2.24796 19.5936 1.82449 20.4124L1.23083 21.5602C0.980861 22.0435 0.804748 22.56 0.707366 23.0954L0.0530303 26.6942C-0.0359623 27.1832 -0.0125905 27.695 0.120449 28.1741L0.387726 29.1364C0.528931 29.6449 0.996217 29.9999 1.52388 29.9999H3.27714C3.59079 29.9999 3.88466 29.8608 4.08347 29.6183C4.28228 29.3759 4.36101 29.0603 4.29951 28.7529C4.12309 27.8708 3.48337 27.1462 2.63 26.8617L2.48707 26.814L2.55524 26.4649C3.01406 24.1135 4.18235 22.0065 5.93381 20.3719C7.2054 19.1851 8.28425 17.8296 9.15208 16.3325C10.8011 15.3367 12.9293 15.4245 14.4902 16.566L17.5584 18.81C18.4911 19.4921 19.6136 19.8667 20.7625 19.8884L22.3451 26.1398C22.4808 26.6758 22.6831 27.194 22.9463 27.68L23.5597 28.8123C23.9565 29.5449 24.7206 30 25.5538 30H27.6789C27.9639 30 28.2336 29.8619 28.4003 29.6307C28.5669 29.3995 28.6126 29.1 28.5225 28.8295C28.2734 28.0823 27.7057 27.5004 26.965 27.2331L26.376 27.0205L26.1424 26.4753C25.9048 25.9209 25.7944 25.3094 25.8231 24.7069L26.1021 18.8469L27.3139 17.1887C27.9009 16.3854 28.3313 15.4914 28.5931 14.5317C28.7816 13.8403 29.0739 13.1844 29.4619 12.5819L32.3688 8.06878L33.7419 7.70532C34.6434 7.46666 35.3846 6.80566 35.7245 5.93715L36.0213 5.17869C36.1508 4.84767 36.1258 4.48001 35.9526 4.16974ZM4.81638 7.61573C4.81713 7.61221 4.81788 7.60861 4.81856 7.60502C5.12561 6.03139 6.45945 4.90438 8.06229 4.8643C8.79259 4.8461 9.52325 5.07008 10.1182 5.49496L10.7238 5.92749C11.4938 6.47755 11.9535 7.37092 11.9535 8.31718C11.9535 8.88313 11.5944 9.38832 11.0599 9.57424C10.5075 9.76631 9.90222 9.57986 9.55382 9.11018L8.96727 8.31973C8.12192 7.18028 6.62365 6.78161 5.32397 7.3504C5.03969 7.47475 4.9101 7.80608 5.03445 8.09028C5.05377 8.13455 5.07864 8.17455 5.10711 8.21096C4.94987 8.30917 4.78732 8.41359 4.62064 8.52476L4.81638 7.61573ZM34.9749 4.76909L34.6781 5.52755C34.4684 6.0636 34.0109 6.47163 33.4544 6.61891L31.8707 7.0381C31.3196 7.1841 30.7407 7.11301 30.2411 6.83824L28.9658 6.13686C28.6937 5.98727 28.3523 6.0866 28.2028 6.35845C28.0533 6.63029 28.1525 6.97196 28.4244 7.12147L29.6996 7.82285C30.0881 8.0365 30.5083 8.16729 30.9381 8.21493L28.5173 11.9734C28.0671 12.6726 27.7278 13.4338 27.5091 14.236C27.2835 15.0631 26.9126 15.8335 26.4068 16.5256L25.0954 18.3201C25.0304 18.409 24.9931 18.5149 24.9878 18.6248L24.7008 24.6533C24.6641 25.4248 24.8054 26.2079 25.1097 26.9178L25.4395 27.6872C25.5007 27.8302 25.6187 27.9415 25.7651 27.9943L26.5835 28.2898C26.89 28.4005 27.1436 28.6071 27.3116 28.8761H25.5538C25.1335 28.8761 24.748 28.6465 24.5478 28.2769L23.9344 27.1445C23.7155 26.7404 23.5473 26.3095 23.4344 25.8638L21.7423 19.1797C21.5258 18.3245 21.5376 17.4236 21.7764 16.5745L22.3819 14.4216C22.466 14.1228 22.2919 13.8126 21.9932 13.7287C21.6945 13.6446 21.3843 13.8187 21.3003 14.1174L20.6948 16.2703C20.4676 17.078 20.4093 17.924 20.5189 18.7522C19.6937 18.6875 18.8956 18.3955 18.2219 17.9028L15.1537 15.6589C14.1805 14.9471 13.029 14.5517 11.8238 14.5155C11.1951 14.4963 10.5753 14.5769 9.982 14.75L10.4337 13.8466C10.5725 13.569 10.46 13.2316 10.1825 13.0928C9.90499 12.954 9.56745 13.0665 9.42872 13.3441L8.66771 14.8661C7.78618 16.6292 6.60845 18.2052 5.16733 19.5502C3.24156 21.3476 1.95708 23.6641 1.45257 26.2495L1.28994 27.083C1.23585 27.3601 1.39586 27.6344 1.66374 27.7236L2.27492 27.9274C2.71502 28.0741 3.05241 28.4326 3.17489 28.8761H1.52403C1.49916 28.8761 1.47721 28.8594 1.47055 28.8354L1.20327 27.8731C1.11532 27.5564 1.09989 27.2182 1.1587 26.895L1.81303 23.2961C1.89041 22.8706 2.03034 22.4602 2.229 22.0761L2.82266 20.9284C3.3722 19.8659 3.514 18.642 3.22186 17.4821C2.87443 16.1031 2.56393 14.8805 2.29905 13.8484C2.07469 12.9742 2.2974 12.0633 2.8948 11.4118C4.35202 9.82279 6.5393 8.65398 7.18143 8.33022C7.52429 8.45382 7.83352 8.6772 8.06491 8.98912L8.65146 9.77957C9.12556 10.4185 9.8572 10.7732 10.6173 10.7732C10.8877 10.7732 11.1618 10.7283 11.429 10.6354C12.3482 10.3157 12.9856 9.48405 13.0677 8.52708C14.4608 8.7799 15.9268 8.86814 17.2912 8.86814C20.2859 8.86814 22.7892 8.4455 22.9476 8.41824C23.0787 8.39561 23.1976 8.32715 23.2831 8.22504L27.9014 2.70376C28.1911 2.35737 28.5727 2.10508 29.0049 1.97414L30.6149 1.48625L29.7698 3.11156C29.6266 3.38686 29.7337 3.72605 30.009 3.8692C30.2843 4.01243 30.6235 3.90516 30.7666 3.62994L31.5651 2.09437L31.8589 2.29535L32.4141 3.34416L32.1223 3.37337C31.8135 3.40423 31.5883 3.67953 31.6191 3.98831C31.6481 4.27806 31.8923 4.49425 32.1775 4.49425C32.1962 4.49425 32.215 4.49335 32.2341 4.4914L33.279 4.3869L34.9292 4.68691C34.9361 4.68819 34.9574 4.69208 34.9713 4.7171C34.9853 4.74212 34.9775 4.7625 34.9749 4.76909Z" fill="white"/>
</svg>
