<svg width="36" height="41" viewBox="0 0 36 41" fill="none" xmlns="http://www.w3.org/2000/svg">
<path d="M21.6118 0C22.3843 0.375021 23.1099 0.876543 23.7533 1.50681L31.2337 8.83288C37.5888 15.0582 37.5888 25.1522 31.2337 31.3775L22.6479 39.7866C21.5476 40.0686 19.8738 40.9984 17.9995 40.9984C16.1256 40.9984 14.4524 40.0689 13.3521 39.7866L4.76629 31.3775C-1.58877 25.1522 -1.58876 15.0582 4.76629 8.83288L12.2457 1.50681C12.8336 0.931019 13.49 0.46138 14.188 0.0986314C17.7263 7.77175 17.5265 12.2487 12.482 18.1872H13.0787L10.0065 23.903C8.58045 26.5567 10.5454 29.7446 13.607 29.7447H17.7192C17.246 28.7677 17.6285 26.1622 16.3296 23.8004C15.8622 22.9506 15.3562 21.9743 15.8609 21.1452C16.3578 20.3294 17.2678 19.783 18.3081 19.7829C19.3485 19.7831 20.2595 20.3292 20.7563 21.1452C21.2606 21.9741 20.7548 22.9508 20.2876 23.8004C18.9886 26.1622 19.3701 28.7675 18.897 29.7447H21.9741C25.0349 29.7438 26.9994 26.5564 25.5736 23.903L22.5024 18.1872H23.06C18.5786 11.838 18.6596 7.2928 21.6118 0ZM25.9994 9.91002C24.4531 9.91016 23.1996 11.1045 23.1996 12.5779C23.1998 14.0515 24.4532 17.1508 25.9994 17.1511C27.5455 17.1505 28.7999 14.0515 28.8001 12.5779C28.8001 11.1046 27.5456 9.91026 25.9994 9.91002Z" fill="#E6A033"/>
</svg>
