<svg width="44" height="48" viewBox="0 0 44 48" fill="none" xmlns="http://www.w3.org/2000/svg">
<path d="M8.93454 19.9473C2.1774 28.9271 1.21402 37.2247 1.21402 46.4742L8.93454 19.9473Z" fill="white"/>
<path d="M8.93454 19.9473C2.1774 28.9271 1.21402 37.2247 1.21402 46.4742" stroke="white" stroke-width="2.4" stroke-linecap="round" stroke-linejoin="round"/>
<path d="M8.93491 19.9473C10.3587 25.4534 13.686 34.9188 13.686 40.3374L8.93491 19.9473Z" fill="white"/>
<path d="M8.93491 19.9473C10.3587 25.4534 13.686 34.9188 13.686 40.3374" stroke="white" stroke-width="2.4" stroke-linecap="round" stroke-linejoin="round"/>
<path d="M28.5331 33.0128C24.8431 33.0128 18.6137 37.9333 14.0817 40.3374L28.5331 33.0128Z" fill="white"/>
<path d="M28.5331 33.0128C24.8431 33.0128 18.6137 37.9333 14.0817 40.3374" stroke="white" stroke-width="2.4" stroke-linecap="round" stroke-linejoin="round"/>
<path d="M29.282 32.9089C29.9083 32.9421 30.5123 33.1572 31.119 33.317L29.282 32.9089Z" fill="white"/>
<path d="M29.282 32.9089C29.9083 32.9421 30.5123 33.1572 31.119 33.317" stroke="white" stroke-width="2.4" stroke-linecap="round" stroke-linejoin="round"/>
<path d="M28.7303 34.3985C29.2028 34.447 29.6584 34.7599 30.116 34.9924L28.7303 34.3985Z" fill="white"/>
<path d="M28.7303 34.3985C29.2028 34.447 29.6584 34.7599 30.116 34.9924" stroke="white" stroke-width="2.4" stroke-linecap="round" stroke-linejoin="round"/>
<path d="M42.7123 17.7922C43.0004 15.8709 42.4415 14.4411 41.3978 13.8189C40.0727 13.0289 38.0422 13.3577 36.3296 15.2832C27.7892 24.8841 37.6406 33.4405 42.3364 19.1234" stroke="white" stroke-width="2.4" stroke-linecap="round" stroke-linejoin="round"/>
<path d="M33.1518 27.8653C30.9481 31.2335 28.8346 35.2363 26.6192 38.5552L33.1518 27.8653Z" fill="white"/>
<path d="M33.1518 27.8653C30.9481 31.2335 28.8346 35.2363 26.6192 38.5552" stroke="white" stroke-width="2.4" stroke-linecap="round" stroke-linejoin="round"/>
<path d="M21.5707 0.811466C22.1596 1.03605 22.4548 1.69549 22.2303 2.28437C22.0058 2.87325 21.3463 3.16857 20.7575 2.94399L21.5707 0.811466ZM23.4193 3.21162C22.8791 2.88696 22.7043 2.18585 23.029 1.64566C23.3537 1.10546 24.0548 0.930732 24.595 1.2554L23.4193 3.21162ZM10.8062 12.306C11.9183 16.7616 14.0681 18.5863 16.2152 19.0627C18.4617 19.5613 21.1164 18.6846 23.3501 16.887C25.5767 15.0949 27.1679 12.5562 27.4216 10.075C27.6646 7.69853 26.7043 5.18599 23.4193 3.21162L24.595 1.2554C28.5644 3.6411 30.0335 6.96818 29.6921 10.3071C29.3613 13.5413 27.3545 16.5938 24.781 18.6651C22.2145 20.7306 18.867 21.989 15.7208 21.2909C12.475 20.5707 9.84176 17.8671 8.59177 12.8586L10.8062 12.306ZM20.7575 2.94399C17.0772 1.54045 14.317 2.52418 12.6082 4.41901C10.8381 6.38186 10.0913 9.44167 10.8062 12.306L8.59177 12.8586C7.70656 9.31192 8.59797 5.45793 10.9133 2.89052C13.29 0.255089 17.0622 -0.90795 21.5707 0.811466L20.7575 2.94399Z" fill="white"/>
<path d="M22.973 12.5648C23.0503 12.2385 23.146 12.2014 23.229 11.8835L22.973 12.5648Z" fill="white"/>
<path d="M22.973 12.5648C23.0503 12.2385 23.146 12.2014 23.229 11.8835" stroke="white" stroke-width="2.4" stroke-linecap="round" stroke-linejoin="round"/>
</svg>
