<svg width="36" height="20" viewBox="0 0 36 20" fill="none" xmlns="http://www.w3.org/2000/svg">
<path d="M29.0074 8.55952C29.7113 8.81724 30.5565 8.27546 30.8954 7.34949C31.2341 6.42351 30.9381 5.46417 30.2343 5.2066C29.5303 4.94924 28.6852 5.49087 28.3463 6.41683C28.0076 7.34282 28.3036 8.30215 29.0074 8.55952Z" fill="white"/>
<path d="M26.3329 10.0368C27.0692 9.97292 27.598 9.13622 27.5143 8.16733C27.4305 7.19878 26.7656 6.46525 26.0292 6.52873C25.293 6.59277 24.7642 7.42963 24.848 8.39836C24.9318 9.36691 25.5966 10.1004 26.3329 10.0368Z" fill="white"/>
<path d="M32.0673 10.0044C32.7136 10.3842 33.6421 10.0027 34.1416 9.15272C34.641 8.30213 34.5219 7.30543 33.8756 6.92561C33.2294 6.54612 32.3006 6.92777 31.8013 7.7778C31.3019 8.62823 31.4211 9.6249 32.0673 10.0044Z" fill="white"/>
<path d="M35.5284 11.0111C35.1094 10.4024 34.1206 10.3553 33.3196 10.9063C32.5184 11.4577 32.2088 12.3979 32.6277 13.0068C33.0466 13.6155 34.0355 13.6626 34.8365 13.1114C35.6374 12.5602 35.9472 11.62 35.5284 11.0111Z" fill="white"/>
<path d="M31.2261 11.1258C31.1462 10.5728 30.8072 10.0685 30.2654 9.81276C29.7237 9.55718 29.1188 9.61617 28.6413 9.90582C28.1135 10.2261 27.7759 10.6446 27.3213 10.8275C26.8667 11.0104 25.5936 10.4657 24.8009 11.9051C24.241 12.9218 24.755 14.2071 25.8045 14.7023C26.6022 15.0788 27.2336 15.0367 27.6971 15.2553C28.1605 15.4739 28.5295 15.9881 29.3271 16.3645C30.3766 16.8598 31.6954 16.4396 32.1244 15.361C32.7316 13.8341 31.5016 13.1976 31.3538 12.7304C31.206 12.2633 31.3144 11.7367 31.2261 11.1258Z" fill="white"/>
<path d="M7.76313 5.97965C8.99493 6.43066 10.474 5.48254 11.0671 3.8621C11.6598 2.24163 11.1419 0.562791 9.91025 0.112047C8.67817 -0.338345 7.1993 0.60951 6.60625 2.22995C6.01347 3.85042 6.5314 5.52925 7.76313 5.97965Z" fill="white"/>
<path d="M3.08263 8.5642C4.37119 8.45248 5.29662 6.98826 5.15017 5.29271C5.00342 3.59774 3.83982 2.31406 2.55126 2.42516C1.26281 2.53723 0.337419 4.00173 0.484021 5.69701C0.630819 7.39197 1.79422 8.67561 3.08263 8.5642Z" fill="white"/>
<path d="M13.1178 8.50655C14.2487 9.17128 15.8737 8.5037 16.7477 7.01615C17.6217 5.52763 17.4134 3.78341 16.2823 3.11872C15.1514 2.45461 13.526 3.12251 12.6522 4.61005C11.7783 6.0983 11.9869 7.84249 13.1178 8.50655Z" fill="white"/>
<path d="M19.1749 10.2701C18.4417 9.2048 16.7112 9.12246 15.3095 10.0867C13.9075 11.0516 13.3657 12.697 14.0987 13.7626C14.8318 14.8278 16.5624 14.9102 17.9641 13.9456C19.3657 12.981 19.9078 11.3357 19.1749 10.2701Z" fill="white"/>
<path d="M11.6458 10.4712C11.5059 9.50354 10.9127 8.621 9.96453 8.17342C9.01656 7.72616 7.95808 7.8294 7.12241 8.33628C6.19874 8.89682 5.60788 9.62909 4.81233 9.94917C4.01689 10.2692 1.78888 9.316 0.401682 11.835C-0.578048 13.6143 0.32133 15.8635 2.15802 16.7302C3.55404 17.3889 4.65893 17.3154 5.47006 17.6979C6.28108 18.0805 6.92671 18.9803 8.32261 19.639C10.1593 20.5057 12.4672 19.7703 13.2178 17.8829C14.2805 15.2107 12.128 14.0968 11.8692 13.2793C11.6107 12.462 11.8004 11.5403 11.6458 10.4712Z" fill="white"/>
</svg>
