<svg width="20" height="20" viewBox="0 0 20 20" fill="none" xmlns="http://www.w3.org/2000/svg">
<path d="M11.2895 3.78969C11.0092 2.77645 11.3942 1.48102 12.1374 0.737788C13.1212 -0.245929 14.7161 -0.245929 15.6998 0.737788C16.6835 1.72152 16.6835 3.31645 15.6998 4.30017C16.6835 3.31645 18.2785 3.31645 19.2622 4.30017C20.2459 5.2839 20.2459 6.87882 19.2622 7.86255C18.519 8.60578 17.2235 8.99078 16.2103 8.71048C15.674 8.56198 15.0246 8.53778 14.6311 8.93128L13.7886 9.77378L11.1037 10.1866V9.64648C11.1037 9.40538 10.9879 9.17898 10.7923 9.03808C10.5967 8.89708 10.3453 8.85868 10.1166 8.93498L8.98242 9.31298V7.45517L11.0687 5.36889C11.4622 4.9754 11.438 4.32602 11.2895 3.78969Z" fill="white"/>
<path d="M7.4824 8.95526L5.36889 11.0688C4.9754 11.4623 4.32602 11.4381 3.78969 11.2896C2.77645 11.0093 1.48101 11.3943 0.737788 12.1375C-0.245929 13.1213 -0.245929 14.7161 0.737788 15.6998C1.72152 16.6835 3.31645 16.6835 4.30017 15.6998C3.31645 16.6835 3.31644 18.2785 4.30017 19.2622C5.2839 20.2459 6.87882 20.2459 7.86255 19.2622C8.60578 18.519 8.99078 17.2235 8.71048 16.2103C8.56198 15.674 8.53778 15.0246 8.93128 14.6311L11.9953 11.5672L10.4677 11.8021C10.2514 11.8353 10.0314 11.7725 9.86538 11.63C9.69928 11.4875 9.60368 11.2796 9.60368 11.0608V10.6872L8.46958 11.0652C8.24088 11.1414 7.98945 11.1031 7.79387 10.9621C7.59829 10.8212 7.4824 10.5948 7.4824 10.3537V8.95526Z" fill="white"/>
</svg>
